<svg width="80" height="80" viewBox="0 0 80 80" fill="none" xmlns="http://www.w3.org/2000/svg">
<g clip-path="url(#clip0_390_407)">
<path d="M5.47021 50.7824V66.3273H8.73743C12.5323 66.3273 14.2911 63.695 14.2911 58.5552C14.2911 53.4155 12.5315 50.7832 8.73743 50.7832L5.47021 50.7824ZM7.45589 51.9825H8.43749C11.0262 51.9825 12.2573 54.1891 12.2573 58.5512C12.2573 62.9133 11.0238 65.1488 8.43749 65.1488H7.45589V51.9825ZM17.4075 50.7824V66.3273H19.3675V50.7824H17.4075ZM26.2789 50.5815L22.3837 66.3265H23.5867L24.642 62.166H28.4618L29.4923 66.3265H31.478L27.6358 50.5815H26.2789ZM26.5555 54.3924L28.1891 60.9611H24.9219L26.5555 54.3924ZM34.6474 50.7824V51.9825H40.1008L34.4966 65.5496V66.3265H42.4361V65.148H36.7582L42.3607 51.5841V50.784L34.6474 50.7824ZM45.5541 50.7824V66.3273H52.6411V65.1488C52.6411 65.1488 48.8149 66.6969 47.5398 65.1488C46.2647 63.6006 47.5398 58.9561 47.5398 58.9561H52.1639V57.7775H47.5398V51.9857H52.4904V50.7856L45.5541 50.7824ZM55.7576 50.7824V66.3273H62.8189V65.1488H57.7176V50.7824H55.7576ZM69.3068 50.5815C65.738 50.5815 64.0547 53.289 64.0547 58.5544C64.0547 63.8446 65.7388 66.5273 69.3068 66.5273C72.8499 66.5273 74.534 63.8446 74.534 58.5544C74.53 53.289 72.8467 50.5815 69.3068 50.5815ZM69.3068 51.7817C71.4681 51.7817 72.4986 54.0635 72.4986 58.5512C72.4986 63.0389 71.4681 65.3456 69.3068 65.3456C67.1206 65.3456 66.115 63.0389 66.115 58.5512C66.115 54.0635 67.1166 51.7817 69.3068 51.7817Z" fill="black"/>
<path d="M24.0693 73.8731C24.07 73.8843 24.0684 73.8954 24.0645 73.9059C24.0607 73.9164 24.0546 73.9259 24.0469 73.9339C24.0391 73.9412 24.0301 73.9468 24.0201 73.9505C24.0102 73.9542 23.9997 73.9559 23.9891 73.9556H22.0644C22.0607 73.955 22.0569 73.9553 22.0533 73.9565C22.0498 73.9577 22.0466 73.9597 22.0439 73.9623C22.0413 73.965 22.0393 73.9682 22.0381 73.9717C22.0369 73.9753 22.0366 73.9791 22.0371 73.9828V75.1573C22.0366 75.161 22.0369 75.1648 22.0381 75.1683C22.0393 75.1718 22.0413 75.1751 22.0439 75.1777C22.0466 75.1803 22.0498 75.1823 22.0533 75.1835C22.0569 75.1847 22.0607 75.185 22.0644 75.1845H23.3732C23.3844 75.1838 23.3956 75.1854 23.406 75.1893C23.4165 75.1931 23.4261 75.1991 23.4341 75.2069C23.4419 75.2149 23.448 75.2245 23.4518 75.2349C23.4557 75.2454 23.4573 75.2566 23.4566 75.2677V75.5597C23.4573 75.5709 23.4557 75.582 23.4518 75.5925C23.448 75.603 23.4419 75.6125 23.4341 75.6205C23.4261 75.6283 23.4165 75.6343 23.406 75.6382C23.3956 75.642 23.3844 75.6437 23.3732 75.6429H22.0644C22.0607 75.6424 22.0569 75.6427 22.0533 75.6439C22.0498 75.6451 22.0466 75.6471 22.0439 75.6497C22.0413 75.6524 22.0393 75.6556 22.0381 75.6591C22.0369 75.6627 22.0366 75.6664 22.0371 75.6701V77.2767C22.0378 77.2879 22.0362 77.299 22.0323 77.3095C22.0285 77.32 22.0225 77.3295 22.0147 77.3375C22.0066 77.3453 21.9971 77.3513 21.9866 77.3552C21.9761 77.359 21.9649 77.3606 21.9537 77.3599H21.5872C21.5761 77.3604 21.5651 77.3586 21.5547 77.3546C21.5443 77.3506 21.5349 77.3445 21.5271 77.3367C21.5191 77.3289 21.5128 77.3196 21.5087 77.3093C21.5046 77.2989 21.5026 77.2878 21.503 77.2767V73.5811C21.5025 73.5699 21.5044 73.5586 21.5085 73.5481C21.5127 73.5377 21.519 73.5282 21.5271 73.5203C21.5351 73.5125 21.5447 73.5065 21.5552 73.5027C21.5657 73.4988 21.5769 73.4972 21.588 73.4979H23.9891C24.0003 73.4972 24.0115 73.4988 24.022 73.5027C24.0325 73.5065 24.042 73.5125 24.0501 73.5203C24.0578 73.5283 24.0639 73.5379 24.0677 73.5483C24.0716 73.5588 24.0732 73.57 24.0725 73.5811L24.0693 73.8731ZM29.4321 77.3591C29.4111 77.3608 29.3902 77.355 29.3731 77.3429C29.3559 77.3307 29.3436 77.313 29.3382 77.2927L29.145 76.6751C29.1375 76.6601 29.1284 76.6527 29.1177 76.6527H27.5755C27.5643 76.6527 27.5552 76.6601 27.5482 76.6751L27.3574 77.2927C27.352 77.313 27.3397 77.3307 27.3225 77.3429C27.3054 77.355 27.2845 77.3608 27.2635 77.3591H26.8674C26.8048 77.3591 26.7826 77.3279 26.8008 77.2655L27.9989 73.5643C28.0043 73.544 28.0167 73.5263 28.0338 73.5142C28.0509 73.502 28.0718 73.4963 28.0928 73.4979H28.6012C28.6222 73.4963 28.643 73.502 28.6602 73.5142C28.6773 73.5263 28.6897 73.544 28.6951 73.5643L29.898 77.2655C29.9022 77.2759 29.9041 77.2871 29.9036 77.2983C29.9036 77.3389 29.8796 77.3591 29.8314 77.3591H29.4321ZM27.691 76.2006C27.6872 76.2225 27.6947 76.2334 27.7134 76.2334H28.9797C29.0017 76.2334 29.0092 76.2225 29.0022 76.2006L28.3606 74.1436C28.3569 74.1286 28.3513 74.1212 28.3438 74.1212C28.3363 74.1212 28.3307 74.1286 28.3269 74.1436L27.691 76.2006ZM34.2872 77.4007C34.0401 77.4059 33.7946 77.361 33.5654 77.2687C33.3723 77.1923 33.2052 77.062 33.0842 76.8935C32.9702 76.7262 32.9113 76.5276 32.9158 76.3254V76.1934C32.9151 76.1823 32.9167 76.1711 32.9206 76.1606C32.9245 76.1502 32.9305 76.1406 32.9383 76.1326C32.9463 76.1248 32.9559 76.1188 32.9664 76.115C32.9769 76.1111 32.988 76.1095 32.9992 76.1102H33.3529C33.364 76.1095 33.3752 76.1111 33.3857 76.115C33.3962 76.1188 33.4058 76.1248 33.4138 76.1326C33.4216 76.1406 33.4276 76.1502 33.4315 76.1606C33.4354 76.1711 33.437 76.1823 33.4363 76.1934V76.2982C33.4357 76.3891 33.4573 76.4788 33.4992 76.5595C33.5411 76.6402 33.6021 76.7095 33.6769 76.7615C33.8668 76.8913 34.0941 76.9554 34.3241 76.9439C34.5285 76.9588 34.7319 76.9023 34.8991 76.7839C34.9615 76.7336 35.0115 76.6696 35.045 76.5969C35.0786 76.5241 35.0948 76.4446 35.0923 76.3646C35.095 76.2586 35.0597 76.1551 34.9929 76.0726C34.9116 75.9801 34.813 75.9042 34.7026 75.8494C34.522 75.7574 34.3364 75.6754 34.1468 75.6037C33.9273 75.5233 33.713 75.4292 33.5053 75.3221C33.3524 75.2408 33.2193 75.1269 33.1155 74.9885C33.008 74.8365 32.9536 74.6535 32.9607 74.4676C32.9544 74.3255 32.9818 74.1839 33.041 74.0544C33.1001 73.9249 33.1891 73.8112 33.3007 73.7227C33.5675 73.53 33.8925 73.4345 34.2214 73.4523C34.4691 73.4466 34.7151 73.4935 34.9432 73.5899C35.1372 73.6704 35.3041 73.8045 35.4244 73.9764C35.5379 74.1459 35.5967 74.3461 35.5928 74.55V74.63C35.5935 74.6412 35.5919 74.6523 35.588 74.6628C35.5841 74.6733 35.5781 74.6828 35.5703 74.6908C35.5623 74.6986 35.5527 74.7046 35.5422 74.7085C35.5317 74.7123 35.5205 74.7139 35.5094 74.7132H35.1501C35.1281 74.7146 35.1064 74.7077 35.0891 74.694C35.0818 74.6876 35.076 74.6795 35.0721 74.6705C35.0682 74.6615 35.0664 74.6518 35.0667 74.642V74.5756C35.0684 74.4833 35.0485 74.3919 35.0087 74.3086C34.9689 74.2253 34.9102 74.1524 34.8373 74.0956C34.6555 73.9596 34.4314 73.8921 34.2046 73.9051C34.017 73.8937 33.8307 73.9431 33.6737 74.046C33.6118 74.0933 33.5623 74.155 33.5297 74.2257C33.497 74.2963 33.482 74.3739 33.486 74.4516C33.4814 74.5587 33.5146 74.664 33.5798 74.7492C33.6569 74.8375 33.7521 74.9082 33.8589 74.9565C33.9824 75.0173 34.1714 75.0954 34.4259 75.1909C34.643 75.2737 34.8553 75.3686 35.0619 75.4749C35.219 75.5581 35.3559 75.6747 35.4629 75.8166C35.5733 75.9695 35.6297 76.1546 35.6232 76.343C35.6274 76.5388 35.5714 76.7311 35.4629 76.8943C35.3471 77.0596 35.1858 77.188 34.9985 77.2639C34.7736 77.3587 34.5314 77.4061 34.2872 77.4031V77.4007ZM41.2587 73.5779C41.258 73.5668 41.2596 73.5556 41.2635 73.5451C41.2673 73.5347 41.2733 73.5251 41.2811 73.5171C41.2892 73.5093 41.2987 73.5033 41.3092 73.4995C41.3197 73.4956 41.3309 73.494 41.3421 73.4947H41.707C41.7181 73.494 41.7293 73.4956 41.7398 73.4995C41.7503 73.5033 41.7599 73.5093 41.7679 73.5171C41.7757 73.5251 41.7817 73.5347 41.7856 73.5451C41.7895 73.5556 41.7911 73.5668 41.7904 73.5779V77.2767C41.7911 77.2879 41.7895 77.299 41.7856 77.3095C41.7817 77.32 41.7757 77.3295 41.7679 77.3375C41.7599 77.3453 41.7503 77.3513 41.7398 77.3552C41.7293 77.359 41.7181 77.3606 41.707 77.3599H41.3421C41.3309 77.3606 41.3197 77.359 41.3092 77.3552C41.2987 77.3513 41.2892 77.3453 41.2811 77.3375C41.2733 77.3295 41.2673 77.32 41.2635 77.3095C41.2596 77.299 41.258 77.2879 41.2587 77.2767V75.6709C41.2592 75.6672 41.2589 75.6635 41.2577 75.6599C41.2565 75.6564 41.2545 75.6532 41.2519 75.6505C41.2492 75.6479 41.246 75.6459 41.2424 75.6447C41.2389 75.6435 41.2351 75.6432 41.2314 75.6437H39.6668C39.6631 75.6432 39.6593 75.6435 39.6557 75.6447C39.6522 75.6459 39.6489 75.6479 39.6463 75.6505C39.6436 75.6532 39.6417 75.6564 39.6405 75.6599C39.6393 75.6635 39.639 75.6672 39.6395 75.6709V77.2767C39.6402 77.2879 39.6386 77.299 39.6347 77.3095C39.6309 77.32 39.6248 77.3295 39.617 77.3375C39.609 77.3453 39.5994 77.3513 39.5889 77.3552C39.5784 77.359 39.5673 77.3606 39.5561 77.3599H39.1912C39.18 77.3606 39.1688 77.359 39.1583 77.3552C39.1479 77.3513 39.1383 77.3453 39.1302 77.3375C39.1225 77.3295 39.1164 77.32 39.1126 77.3095C39.1087 77.299 39.1071 77.2879 39.1078 77.2767V73.5811C39.1071 73.57 39.1087 73.5588 39.1126 73.5483C39.1164 73.5379 39.1225 73.5283 39.1302 73.5203C39.1383 73.5125 39.1479 73.5065 39.1583 73.5027C39.1688 73.4988 39.18 73.4972 39.1912 73.4979H39.5561C39.5673 73.4972 39.5784 73.4988 39.5889 73.5027C39.5994 73.5065 39.609 73.5125 39.617 73.5203C39.6248 73.5283 39.6309 73.5379 39.6347 73.5483C39.6386 73.5588 39.6402 73.57 39.6395 73.5811V75.1589C39.639 75.1626 39.6393 75.1664 39.6405 75.1699C39.6417 75.1734 39.6436 75.1767 39.6463 75.1793C39.6489 75.1819 39.6522 75.1839 39.6557 75.1851C39.6593 75.1863 39.6631 75.1866 39.6668 75.1861H41.2314C41.2351 75.1866 41.2389 75.1863 41.2424 75.1851C41.246 75.1839 41.2492 75.1819 41.2519 75.1793C41.2545 75.1767 41.2565 75.1734 41.2577 75.1699C41.2589 75.1664 41.2592 75.1626 41.2587 75.1589V73.5779ZM45.5219 77.3591C45.5108 77.3598 45.4996 77.3582 45.4891 77.3544C45.4786 77.3505 45.469 77.3445 45.461 77.3367C45.4532 77.3287 45.4472 77.3192 45.4433 77.3087C45.4394 77.2982 45.4378 77.2871 45.4385 77.2759V73.5811C45.4378 73.57 45.4394 73.5588 45.4433 73.5483C45.4472 73.5379 45.4532 73.5283 45.461 73.5203C45.469 73.5125 45.4786 73.5065 45.4891 73.5027C45.4996 73.4988 45.5108 73.4972 45.5219 73.4979H45.8828C45.894 73.4972 45.9052 73.4988 45.9157 73.5027C45.9262 73.5065 45.9357 73.5125 45.9438 73.5203C45.9515 73.5283 45.9576 73.5379 45.9614 73.5483C45.9653 73.5588 45.9669 73.57 45.9662 73.5811V77.2767C45.9669 77.2879 45.9653 77.299 45.9614 77.3095C45.9576 77.32 45.9515 77.3295 45.9438 77.3375C45.9357 77.3453 45.9262 77.3513 45.9157 77.3552C45.9052 77.359 45.894 77.3606 45.8828 77.3599L45.5219 77.3591ZM50.9015 77.4087C50.6538 77.4137 50.4087 77.3567 50.1886 77.2431C49.9865 77.1371 49.8194 76.9751 49.7074 76.7767C49.5902 76.565 49.531 76.3263 49.5358 76.0846V74.7724C49.531 74.532 49.5902 74.2946 49.7074 74.0844C49.8202 73.8873 49.9872 73.7266 50.1886 73.6211C50.4087 73.5075 50.6538 73.4506 50.9015 73.4555C51.1522 73.4496 51.4004 73.5065 51.6233 73.6211C51.8247 73.7266 51.9917 73.8873 52.1045 74.0844C52.2219 74.295 52.2812 74.533 52.2761 74.774V76.0846C52.2809 76.3263 52.2217 76.565 52.1045 76.7767C51.9924 76.9751 51.8253 77.1371 51.6233 77.2431C51.4004 77.3577 51.1522 77.4146 50.9015 77.4087ZM50.9015 76.9511C51.0133 76.9557 51.1249 76.9376 51.2295 76.8977C51.334 76.8578 51.4293 76.797 51.5094 76.7191C51.5879 76.6382 51.649 76.5422 51.689 76.4369C51.7289 76.3317 51.747 76.2194 51.742 76.107V74.7668C51.7472 74.6531 51.7293 74.5394 51.6893 74.4327C51.6494 74.326 51.5882 74.2285 51.5094 74.146C51.4296 74.0674 51.3345 74.006 51.2299 73.9657C51.1253 73.9254 51.0135 73.9069 50.9015 73.9115C50.7898 73.9067 50.6783 73.925 50.5741 73.9654C50.4699 74.0057 50.3752 74.0672 50.296 74.146C50.2182 74.2289 50.1577 74.3266 50.1184 74.4332C50.079 74.5399 50.0614 74.6533 50.0667 74.7668V76.107C50.0616 76.2192 50.0793 76.3312 50.1187 76.4364C50.1581 76.5416 50.2184 76.6377 50.296 76.7191C50.3756 76.7971 50.4704 76.858 50.5746 76.8979C50.6788 76.9378 50.79 76.9559 50.9015 76.9511ZM55.9275 77.3591C55.9163 77.3598 55.9051 77.3582 55.8946 77.3544C55.8841 77.3505 55.8745 77.3445 55.8665 77.3367C55.8587 77.3287 55.8527 77.3192 55.8488 77.3087C55.845 77.2982 55.8433 77.2871 55.844 77.2759V73.5811C55.8433 73.57 55.845 73.5588 55.8488 73.5483C55.8527 73.5379 55.8587 73.5283 55.8665 73.5203C55.8745 73.5125 55.8841 73.5065 55.8946 73.5027C55.9051 73.4988 55.9163 73.4972 55.9275 73.4979H56.2811C56.3012 73.497 56.3211 73.5017 56.3387 73.5114C56.3563 73.5212 56.3708 73.5356 56.3806 73.5531L58.0727 76.2838C58.0802 76.295 58.0877 76.2995 58.0952 76.2974C58.1027 76.2953 58.1064 76.287 58.1064 76.2726V73.5811C58.1057 73.57 58.1073 73.5588 58.1112 73.5483C58.115 73.5379 58.1211 73.5283 58.1289 73.5203C58.1369 73.5125 58.1465 73.5065 58.1569 73.5027C58.1674 73.4988 58.1786 73.4972 58.1898 73.4979H58.5539C58.5651 73.4972 58.5762 73.4988 58.5867 73.5027C58.5972 73.5065 58.6068 73.5125 58.6148 73.5203C58.6226 73.5283 58.6287 73.5379 58.6325 73.5483C58.6364 73.5588 58.638 73.57 58.6373 73.5811V77.2767C58.638 77.2879 58.6364 77.299 58.6325 77.3095C58.6287 77.32 58.6226 77.3295 58.6148 77.3375C58.6068 77.3453 58.5972 77.3513 58.5867 77.3552C58.5762 77.359 58.5651 77.3606 58.5539 77.3599H58.1946C58.1745 77.3608 58.1546 77.3562 58.137 77.3464C58.1195 77.3367 58.105 77.3222 58.0952 77.3047L56.403 74.558C56.3955 74.5468 56.388 74.5423 56.3806 74.5444C56.3731 74.5466 56.3693 74.5548 56.3693 74.5692L56.3749 77.2775C56.3757 77.2887 56.374 77.2998 56.3702 77.3103C56.3663 77.3208 56.3603 77.3303 56.3525 77.3383C56.3445 77.3461 56.3349 77.3521 56.3244 77.356C56.3139 77.3598 56.3027 77.3614 56.2915 77.3607L55.9275 77.3591Z" fill="black"/>
<mask id="mask0_390_407" style="mask-type:luminance" maskUnits="userSpaceOnUse" x="35" y="2" width="19" height="39">
<path d="M53.7124 2.64355V6.98084L53.6218 6.87523C52.7974 5.87752 50.5743 3.56606 47.6961 3.56606H41.6348C41.6083 3.56198 41.5814 3.56037 41.5546 3.56126C41.3485 3.56126 40.3332 3.64127 40.3332 5.29106V38.0147C40.4147 39.1069 40.8833 40.1344 41.6548 40.9134L41.735 40.999H35.5479L35.628 40.9134C36.3971 40.1408 36.8398 39.1033 36.8647 38.0147V5.11024C36.7326 4.19998 36.2993 3.3599 35.6337 2.72357L35.5479 2.64355H53.7124Z" fill="white"/>
</mask>
<g mask="url(#mask0_390_407)">
<path d="M39.056 42.8978L34.0293 38.8862L34.1239 38.7686L39.1499 42.7826L39.056 42.8978Z" fill="black"/>
<path d="M41.0653 38.6986L36.0386 34.6869L36.1332 34.5693L41.1591 38.5834L41.0653 38.6986Z" fill="black"/>
<path d="M39.9838 42.4808L34.957 38.4692L35.0517 38.3516L40.0776 42.3656L39.9838 42.4808Z" fill="black"/>
<path d="M40.9911 37.2762L35.9644 33.2646L36.059 33.147L41.0849 37.161L40.9911 37.2762Z" fill="black"/>
<path d="M40.6537 41.8959L35.627 37.8842L35.7216 37.7666L40.7475 41.7807L40.6537 41.8959Z" fill="black"/>
<path d="M41.6591 36.6923L36.6323 32.6806L36.727 32.563L41.7529 36.577L41.6591 36.6923Z" fill="black"/>
<path d="M42.0727 41.8942L36.0034 37.0473L36.0981 36.9297L42.1673 41.7774L42.0727 41.8942Z" fill="black"/>
<path d="M42.2949 36.1901L36.2256 31.3432L36.3202 31.2256L42.3895 36.0733L42.2949 36.1901Z" fill="black"/>
<path d="M42.0727 29.6716L36.0034 24.8246L36.0981 24.707L42.1673 29.5548L42.0727 29.6716Z" fill="black"/>
<path d="M42.5175 41.0588L36.4482 36.2119L36.5429 36.0942L42.6122 40.942L42.5175 41.0588Z" fill="black"/>
<path d="M42.7392 35.3537L36.6699 30.5068L36.7646 30.3892L42.8338 35.2369L42.7392 35.3537Z" fill="black"/>
<path d="M42.5175 28.8352L36.4482 23.9882L36.5429 23.8706L42.6122 28.7183L42.5175 28.8352Z" fill="black"/>
<path d="M42.2949 33.7668L36.2256 28.9199L36.3202 28.8022L42.3895 33.65L42.2949 33.7668Z" fill="black"/>
<path d="M42.0727 27.2478L36.0034 22.4008L36.0981 22.2832L42.1673 27.1309L42.0727 27.2478Z" fill="black"/>
<path d="M42.2949 23.236L36.2256 18.3891L36.3202 18.2715L42.3895 23.1192L42.2949 23.236Z" fill="black"/>
<path d="M42.2949 19.2248L36.2256 14.3779L36.3202 14.2603L42.3895 19.108L42.2949 19.2248Z" fill="black"/>
<path d="M42.2949 15.2131L36.2256 10.3661L36.3202 10.2485L42.3895 15.0963L42.2949 15.2131Z" fill="black"/>
<path d="M41.7915 10.6999L35.7222 5.85296L35.8168 5.73535L41.8861 10.5831L41.7915 10.6999Z" fill="black"/>
<path d="M42.2949 32.2624L36.2256 27.4155L36.3202 27.2979L42.3895 32.1456L42.2949 32.2624Z" fill="black"/>
<path d="M42.0727 25.7424L36.0034 20.8954L36.0981 20.7778L42.1673 25.6256L42.0727 25.7424Z" fill="black"/>
<path d="M42.2949 21.7321L36.2256 16.8852L36.3202 16.7676L42.3895 21.6153L42.2949 21.7321Z" fill="black"/>
<path d="M42.2949 17.7209L36.2256 12.874L36.3202 12.7563L42.3895 17.6041L42.2949 17.7209Z" fill="black"/>
<path d="M42.2949 13.7087L36.2256 8.86175L36.3202 8.74414L42.3895 13.5919L42.2949 13.7087Z" fill="black"/>
<path d="M41.7915 9.19502L35.7222 4.34808L35.8168 4.23047L41.8861 9.07821L41.7915 9.19502Z" fill="black"/>
<path d="M42.2949 30.8786L36.2256 26.0317L36.3202 25.9141L42.3895 30.7618L42.2949 30.8786Z" fill="black"/>
<path d="M42.0727 24.3601L36.0034 19.5131L36.0981 19.3955L42.1673 24.2432L42.0727 24.3601Z" fill="black"/>
<path d="M42.2949 20.3474L36.2256 15.5004L36.3202 15.3828L42.3895 20.2306L42.2949 20.3474Z" fill="black"/>
<path d="M42.2949 16.3366L36.2256 11.4897L36.3202 11.3721L42.3895 16.2198L42.2949 16.3366Z" fill="black"/>
<path d="M42.2949 12.3259L36.2256 7.47894L36.3202 7.36133L42.3895 12.2091L42.2949 12.3259Z" fill="black"/>
<path d="M41.7915 7.81319L35.7222 2.96625L35.8168 2.84863L41.8861 7.69637L41.7915 7.81319Z" fill="black"/>
<path d="M42.2949 6.80928L36.2256 1.96234L36.3202 1.84473L42.3895 6.69247L42.2949 6.80928Z" fill="black"/>
<path d="M43.2993 6.30782L37.23 1.46087L37.3246 1.34326L43.3939 6.191L43.2993 6.30782Z" fill="black"/>
<path d="M46.3139 6.30782L40.2446 1.46087L40.3393 1.34326L46.4085 6.191L46.3139 6.30782Z" fill="black"/>
<path d="M48.8276 5.85176L42.7583 1.00482L42.8529 0.887207L48.9222 5.73495L48.8276 5.85176Z" fill="black"/>
<path d="M52.3842 6.35323L46.3149 1.50629L46.4096 1.38867L52.4789 6.23641L52.3842 6.35323Z" fill="black"/>
<path d="M54.3959 5.85176L48.3267 1.00482L48.4213 0.887207L54.4906 5.73495L54.3959 5.85176Z" fill="black"/>
<path d="M44.8085 6.30782L38.7393 1.46087L38.8339 1.34326L44.9032 6.191L44.8085 6.30782Z" fill="black"/>
<path d="M47.8227 6.30782L41.7534 1.46087L41.8481 1.34326L47.9173 6.191L47.8227 6.30782Z" fill="black"/>
<path d="M50.3359 5.85176L44.2666 1.00482L44.3612 0.887207L50.4305 5.73495L50.3359 5.85176Z" fill="black"/>
<path d="M53.8925 6.35323L47.8232 1.50629L47.9179 1.38867L53.9872 6.23641L53.8925 6.35323Z" fill="black"/>
<path d="M55.9028 5.85176L49.8335 1.00482L49.9281 0.887207L55.9974 5.73495L55.9028 5.85176Z" fill="black"/>
</g>
<path d="M35.4312 2.59229H53.7633V6.94158L53.6743 6.83517C52.8419 5.83826 50.5931 3.51879 47.6924 3.51879H41.5734C41.5467 3.51735 41.52 3.51735 41.4932 3.51879C41.235 3.51879 40.3921 3.64361 40.3921 5.25339V38.0627C40.4771 39.1586 40.9505 40.1885 41.7274 40.9678L41.8076 41.0526H35.4336L35.5138 40.9678C36.2869 40.1942 36.7337 39.1547 36.7624 38.0627V5.06777C36.6271 4.15463 36.1892 3.31299 35.5186 2.6771L35.4312 2.59229ZM53.6631 2.6923H35.6701C36.3114 3.33281 36.7287 4.16243 36.8603 5.05816V5.07097V38.0579C36.8349 39.1359 36.408 40.1658 35.6629 40.947H41.5726C40.8238 40.1607 40.3705 39.1403 40.2895 38.0587V5.24938C40.2607 4.96711 40.2913 4.68193 40.3794 4.41215C40.4675 4.14238 40.6112 3.89396 40.8011 3.68281C40.9907 3.5127 41.2359 3.4174 41.4908 3.41478C41.5216 3.41455 41.5524 3.41589 41.5831 3.41878H47.6932C50.5378 3.41878 52.7585 5.60942 53.6639 6.66634L53.6631 2.6923Z" fill="black"/>
<path d="M30.4964 34.5864V26.2598C29.8067 26.3606 29.1162 26.4367 28.441 26.4863V33.2414C28.441 34.6376 27.2613 35.2497 26.2243 35.4633H36.2906V34.5832L30.4964 34.5864ZM25.8955 9.26514C28.1105 9.48836 28.4209 11.0013 28.4345 11.0701V11.0894V23.5947C29.1304 23.4491 29.8176 23.2654 30.4932 23.0443V10.0892H36.2842V9.26514H25.8955ZM48.3506 17.8661C45.6693 18.1556 43.0315 18.7584 40.4913 19.6623V22.5378C42.8179 21.5688 45.2267 20.8094 47.689 20.2688C48.0651 20.1888 48.4268 20.124 48.7692 20.0647C48.7037 19.3197 48.5634 18.5832 48.3506 17.8661Z" fill="black"/>
<path d="M36.5379 35.7156H26.2206L26.1701 35.2196C26.9231 35.0644 28.1862 34.6011 28.1862 33.2434V26.2546L28.4188 26.2378C29.0563 26.1914 29.7139 26.1194 30.3764 26.025L30.7469 25.6569V34.3355H36.5379V35.7156ZM27.5711 35.214H36.0351V34.8371H30.2441V26.5522C29.7196 26.6234 29.2015 26.681 28.6882 26.7218V33.245C28.6933 33.6425 28.5924 34.0343 28.396 34.3802C28.1996 34.7262 27.9155 35.0139 27.5711 35.214ZM28.1862 23.9039V11.1105C28.1597 10.9881 27.8333 9.71113 25.8701 9.51031L25.895 9.01025H36.5379V10.336H30.7469V23.2215L30.5745 23.2782C29.8903 23.503 29.1942 23.69 28.4893 23.8383L28.1862 23.9039ZM27.5286 9.51591C27.7739 9.66228 27.9943 9.84675 28.1814 10.0624C28.4244 10.3366 28.596 10.6664 28.681 11.0225L28.689 11.0689V23.2839C29.2175 23.1638 29.7388 23.023 30.2448 22.8622V9.83835H36.0359V9.51831L27.5286 9.51591ZM40.2414 22.9054V19.481L40.4122 19.4234C42.9707 18.513 45.6277 17.9061 48.3284 17.6152L48.5329 17.5968L48.5914 17.7928C48.809 18.5258 48.9525 19.2788 49.0197 20.0403L49.0406 20.2699L48.8128 20.3099C48.4599 20.3715 48.099 20.4395 47.7398 20.5131C45.2929 21.0545 42.8986 21.8097 40.5846 22.7702L40.2414 22.9054ZM40.7442 19.8411V22.1685C42.9769 21.2561 45.2845 20.5379 47.6411 20.0219C47.9274 19.9635 48.2145 19.9083 48.4984 19.8571C48.4349 19.275 48.3246 18.699 48.1688 18.1345C45.6375 18.4264 43.1467 18.999 40.7426 19.8419L40.7442 19.8411Z" fill="black"/>
<path d="M51.7433 19.9461C51.8558 20.7519 51.9113 21.5647 51.9093 22.3783C51.9756 24.8718 51.3758 27.338 50.1714 29.5239C49.2352 31.1201 47.9244 32.4655 46.3517 33.4444C44.6564 34.505 42.7542 35.1931 40.7716 35.463H40.4917V34.5485C46.4599 33.2804 49.2419 29.0479 49.2419 21.2438C49.2419 20.895 49.2291 20.5517 49.2035 20.2237C49.1394 19.3273 48.9714 18.4413 48.703 17.5834C48.1762 16.018 47.3102 14.5877 46.1666 13.394C45.0229 12.2003 43.6297 11.2727 42.086 10.677C41.5736 10.4794 41.0382 10.3474 40.4925 10.2842V9.26807H40.5727C42.1093 9.47265 43.6026 9.92386 44.9947 10.6042C46.4663 11.2894 47.7799 12.2709 48.853 13.487C49.926 14.7031 50.7353 16.1274 51.23 17.6706C51.4644 18.4135 51.6361 19.1746 51.7433 19.9461Z" fill="black"/>
<path d="M40.2397 9.01416H40.5934C42.1598 9.22151 43.6822 9.68086 45.1013 10.3743C46.6036 11.0741 47.9447 12.0764 49.04 13.3182C50.1353 14.5601 50.9611 16.0146 51.4657 17.5903C51.7056 18.3477 51.8816 19.1239 51.9918 19.9106C52.1059 20.7284 52.1622 21.5532 52.1602 22.3789C52.2269 24.9164 51.6158 27.426 50.3894 29.6501C49.4334 31.2819 48.0941 32.6575 46.4871 33.6585C44.7574 34.737 42.8185 35.438 40.7979 35.7156H40.7851H40.2405V34.3442L40.4394 34.3018C46.2729 33.0625 48.99 28.9124 48.99 21.2427C48.99 20.8947 48.9772 20.5579 48.9523 20.2426C48.8898 19.3641 48.7254 18.4958 48.4623 17.6551C47.9458 16.1242 47.0977 14.7256 45.9782 13.5586C44.8586 12.3917 43.4952 11.485 41.9848 10.9032C41.4929 10.7146 40.979 10.5888 40.4555 10.5287L40.2397 10.4983V9.01416ZM40.7578 35.2139C42.6968 34.944 44.5569 34.2693 46.2168 33.2337C47.7561 32.2746 49.0386 30.9566 49.954 29.3932C51.1356 27.2456 51.7234 24.8231 51.6574 22.3741C51.6605 21.5712 51.6069 20.7691 51.497 19.9738C51.391 19.2142 51.2215 18.4649 50.9901 17.7335C50.5057 16.2228 49.7132 14.8283 48.6625 13.6378C47.6118 12.4473 46.3256 11.4866 44.8847 10.816C43.5781 10.1818 42.183 9.74775 40.7466 9.52862V10.0551C41.2411 10.1231 41.7257 10.2499 42.1901 10.4327C43.7672 11.0422 45.1903 11.9908 46.3582 13.2112C47.5261 14.4316 48.4102 15.8937 48.9475 17.4935C49.2222 18.3708 49.3939 19.277 49.4592 20.1938C49.4856 20.5211 49.4984 20.8707 49.4984 21.2339C49.4984 25.2232 48.7863 28.2459 47.3203 30.475C46.5932 31.5845 45.6361 32.5255 44.5134 33.2345C43.3526 33.948 42.0777 34.4575 40.7442 34.741V35.2059L40.7578 35.2139Z" fill="black"/>
<path d="M51.9085 22.3783C51.975 24.8718 51.3755 27.338 50.1714 29.5239C49.2352 31.1201 47.9244 32.4655 46.3517 33.4444C44.6564 34.505 42.7542 35.1931 40.7716 35.463H40.4917V34.5485C46.4599 33.2804 49.2419 29.0479 49.2419 21.2438C49.2419 20.895 49.2291 20.5517 49.2035 20.2237C49.1394 19.3273 48.9714 18.4413 48.703 17.5834C48.1762 16.018 47.3102 14.5877 46.1666 13.394C45.0229 12.2003 43.6297 11.2727 42.086 10.677C41.5736 10.4794 41.0382 10.3474 40.4925 10.2842V9.26807H40.5727C42.1093 9.47265 43.6026 9.92386 44.9947 10.6042C46.4663 11.2894 47.7799 12.2709 48.853 13.487C49.926 14.7031 50.7353 16.1274 51.23 17.6706C51.4656 18.4142 51.6383 19.1761 51.7465 19.9485C51.8576 20.7536 51.9117 21.5656 51.9085 22.3783Z" fill="black"/>
<path d="M40.7851 35.7156H40.2406V34.3442L40.4394 34.3018C46.2729 33.0625 48.99 28.9124 48.99 21.2427C48.99 20.8947 48.9772 20.5579 48.9523 20.2426C48.8898 19.3641 48.7254 18.4958 48.4623 17.6551C47.9458 16.1242 47.0977 14.7256 45.9782 13.5586C44.8587 12.3917 43.4952 11.485 41.9848 10.9032C41.4929 10.7146 40.979 10.5888 40.4555 10.5287L40.2397 10.4983V9.01416H40.5934C42.1598 9.22153 43.6822 9.68088 45.1013 10.3743C46.6036 11.0741 47.9446 12.0764 49.0399 13.3183C50.1352 14.5601 50.9611 16.0146 51.4657 17.5903C51.7056 18.3477 51.8816 19.1239 51.9918 19.9106C52.1059 20.7284 52.1622 21.5532 52.1602 22.3789C52.227 24.9164 51.6158 27.426 50.3894 29.6501C49.4333 31.2819 48.0941 32.6575 46.4871 33.6585C44.7574 34.737 42.8185 35.438 40.7979 35.7156H40.7851ZM40.7434 35.2139H40.7594C42.6984 34.944 44.5585 34.2693 46.2184 33.2337C47.7577 32.2746 49.0402 30.9566 49.9556 29.3932C51.1372 27.2456 51.7251 24.8231 51.659 22.3741C51.6621 21.5712 51.6085 20.7691 51.4986 19.9738C51.3926 19.2142 51.2231 18.4649 50.9917 17.7335C50.5073 16.2228 49.7148 14.8283 48.6641 13.6378C47.6134 12.4473 46.3272 11.4866 44.8863 10.816C43.5797 10.1818 42.1846 9.74778 40.7482 9.52862V10.0551C41.2427 10.1231 41.7274 10.2499 42.1917 10.4327C43.7688 11.0422 45.1919 11.9908 46.3598 13.2112C47.5277 14.4316 48.4118 15.8937 48.9491 17.4935C49.2237 18.3708 49.3954 19.277 49.4608 20.1938C49.4872 20.5211 49.5001 20.8707 49.5001 21.2339C49.5001 25.2232 48.7879 28.2459 47.3219 30.475C46.5949 31.5845 45.6377 32.5255 44.515 33.2345C43.3542 33.948 42.0793 34.4576 40.7458 34.741L40.7434 35.2139Z" fill="black"/>
<path d="M48.7696 20.0629C48.4272 20.1229 48.0655 20.1909 47.6894 20.2669C45.2271 20.8075 42.8183 21.5669 40.4917 22.536V19.6605C43.0319 18.7566 45.6697 18.1537 48.351 17.8643C48.5638 18.5813 48.7041 19.3179 48.7696 20.0629Z" fill="black"/>
<path d="M48.5337 17.5977L48.5923 17.7937C48.8099 18.5267 48.9533 19.2796 49.0205 20.0411L49.0414 20.2708L48.8136 20.3108C48.4608 20.3724 48.0999 20.4404 47.7406 20.514C45.2937 21.0553 42.8994 21.8106 40.5854 22.771L40.2422 22.9063V19.4819L40.413 19.4243C42.9715 18.5139 45.6285 17.9069 48.3292 17.6161L48.5337 17.5977ZM48.4976 19.8579C48.4341 19.2759 48.3239 18.6998 48.1681 18.1353C45.6376 18.4271 43.1475 18.9995 40.7442 19.8419V22.1694C42.9769 21.257 45.2845 20.5388 47.6411 20.0227C47.9258 19.9643 48.2137 19.9091 48.4976 19.8579Z" fill="black"/>
<path d="M36.2863 21.2303V24.2075C34.4734 24.9278 32.5927 25.4652 30.6725 25.8116L30.4319 25.8484C29.6853 25.9572 28.9378 26.0373 28.2129 26.0885C27.6354 26.1261 27.0644 26.1461 26.5143 26.1461C23.4548 26.1461 18.2853 25.5356 18.0343 21.4439C18.0117 21.0971 18.0592 20.7493 18.1741 20.4212C18.289 20.0931 18.4689 19.7914 18.7031 19.5341C19.3436 18.9809 20.1751 18.6987 21.0208 18.7476C20.4327 18.8801 19.8961 19.1809 19.477 19.6133C19.2564 19.8732 19.0956 20.1782 19.0058 20.5068C18.916 20.8353 18.8995 21.1795 18.9574 21.5152C19.1739 23.333 21.3368 24.4179 24.746 24.4179C25.9286 24.4125 27.1078 24.293 28.2674 24.0611C29.116 23.8951 29.9527 23.6733 30.7719 23.397C30.8954 23.3562 31.0197 23.3169 31.1424 23.2681C32.1762 22.8945 33.3382 22.4233 34.5676 21.9248C35.1242 21.6944 35.6976 21.4615 36.2863 21.2303Z" fill="black"/>
<path d="M21.0165 18.4932L21.0855 18.9861C20.5443 19.1047 20.0501 19.3797 19.6644 19.7766C19.468 20.0104 19.3253 20.2842 19.2462 20.5789C19.1671 20.8736 19.1535 21.1819 19.2065 21.4824C19.2762 21.9126 19.4567 22.3175 19.7302 22.6573C20.0038 22.9971 20.3611 23.2602 20.7671 23.421C22.0208 23.9636 23.3809 24.2177 24.7465 24.1643C25.9129 24.1589 27.0761 24.041 28.2198 23.8122C29.0576 23.6486 29.8835 23.4296 30.6923 23.157C30.8182 23.1154 30.9401 23.0769 31.0564 23.0305C32.0861 22.6585 33.2449 22.1881 34.4719 21.6912L34.6596 21.6112C35.156 21.4104 35.6693 21.2023 36.193 20.9935L36.5378 20.8559V24.3763L36.3774 24.4379C34.549 25.1651 32.6519 25.7071 30.7147 26.0557L30.6506 26.0653L30.4717 26.0925C29.7251 26.2013 28.9713 26.2821 28.2334 26.3325C27.6424 26.3709 27.065 26.3909 26.518 26.3909C24.6881 26.4305 22.8655 26.1483 21.1336 25.5572C20.2662 25.2459 19.4843 24.7352 18.8512 24.0667C18.2053 23.3443 17.8294 22.4215 17.787 21.4544V21.4392C17.7637 21.0593 17.8175 20.6786 17.9451 20.32C18.0727 19.9613 18.2715 19.632 18.5296 19.3517C19.2146 18.7529 20.1071 18.4448 21.0165 18.4932ZM24.7465 24.6651C21.1978 24.6651 18.941 23.497 18.7077 21.5448C18.6449 21.174 18.6645 20.7939 18.7649 20.4315C18.8654 20.069 19.0443 19.7329 19.2891 19.4469C19.3185 19.4139 19.349 19.3816 19.3805 19.3501C19.1966 19.444 19.0283 19.5657 18.8817 19.711C18.6722 19.9444 18.5116 20.2172 18.4094 20.5135C18.3072 20.8097 18.2655 21.1234 18.2866 21.436C18.5272 25.3148 23.5468 25.8949 26.5156 25.8949C27.0522 25.8949 27.6175 25.8757 28.1998 25.8381C28.9215 25.7892 29.665 25.7093 30.3988 25.602L30.5736 25.5756L30.6369 25.566C32.4833 25.2353 34.2923 24.7228 36.0374 24.0363V21.6032C35.6364 21.7632 35.2354 21.9232 34.8505 22.0832L34.6644 22.1584C33.4318 22.6585 32.2681 23.1297 31.2304 23.5058C31.1093 23.5498 30.9826 23.5946 30.8535 23.637C30.0243 23.9166 29.1774 24.1412 28.3184 24.3091C27.142 24.5414 25.9458 24.6595 24.7465 24.6619V24.6651Z" fill="black"/>
<path d="M48.7696 20.0629C48.4272 20.1229 48.0655 20.1909 47.6894 20.2669C45.2271 20.8075 42.8183 21.5669 40.4917 22.536V19.6605C43.0319 18.7566 45.6697 18.1537 48.351 17.8643C48.5638 18.5813 48.7041 19.3179 48.7696 20.0629Z" fill="black"/>
<path d="M48.5337 17.5977L48.5923 17.7937C48.8099 18.5267 48.9533 19.2796 49.0205 20.0411L49.0414 20.2708L48.8136 20.3108C48.4608 20.3724 48.0999 20.4404 47.7406 20.514C45.2937 21.0553 42.8994 21.8106 40.5854 22.771L40.2422 22.9063V19.4819L40.413 19.4243C42.9715 18.5139 45.6285 17.9069 48.3292 17.6161L48.5337 17.5977ZM48.4976 19.8579C48.4341 19.2759 48.3239 18.6998 48.1681 18.1353C45.6376 18.4271 43.1475 18.9995 40.7442 19.8419V22.1694C42.9769 21.257 45.2845 20.5388 47.6411 20.0227C47.9258 19.9643 48.2137 19.9091 48.4976 19.8579Z" fill="black"/>
<path d="M55.3645 25.5049C55.1089 25.5047 54.8537 25.4828 54.6018 25.4393C56.5594 24.8369 58.0503 24.2856 57.6902 22.2982C57.5146 21.3252 56.6188 19.6931 52.5889 19.6931C52.4405 19.6931 52.2873 19.6931 52.1318 19.6995C52.0352 19.0694 51.8973 18.4464 51.7188 17.8345L51.8174 17.8425C54.7205 18.0945 56.7182 18.889 57.7519 20.2043C58.1126 20.6927 58.365 21.2521 58.4925 21.8452C58.62 22.4383 58.6196 23.0517 58.4914 23.6447C58.3582 24.5424 57.0687 25.5049 55.3645 25.5049Z" fill="black"/>
<path d="M55.3639 25.7551C55.0951 25.7548 54.8268 25.7317 54.5619 25.6863L54.5306 25.1999C56.5532 24.5774 57.7594 24.0741 57.4458 22.3427C57.2854 21.4466 56.4393 19.9425 52.5923 19.9425C52.4479 19.9425 52.2964 19.9425 52.1424 19.9489L51.921 19.9553L51.8874 19.7368C51.7924 19.1179 51.6568 18.5059 51.4816 17.9047L51.3789 17.5542L51.7438 17.5846L51.8433 17.5926C54.8186 17.851 56.8748 18.6775 57.9566 20.0497C58.3391 20.5643 58.6073 21.1542 58.7435 21.7802C58.8797 22.4062 58.8808 23.054 58.7466 23.6805C58.6755 23.983 58.5418 24.2674 58.3541 24.5154C58.1664 24.7634 57.9289 24.9696 57.6567 25.1206C56.9678 25.5438 56.1729 25.7638 55.3639 25.7551ZM52.5883 19.4416C56.801 19.4416 57.7473 21.2018 57.9366 22.2531C58.0496 22.6735 58.0375 23.1177 57.9016 23.5313C57.7657 23.9449 57.512 24.3101 57.1715 24.5822C56.8444 24.8329 56.4834 25.0363 56.0993 25.1863C57.2846 24.9686 58.1459 24.2558 58.2446 23.6045C58.3663 23.0456 58.3679 22.4674 58.2493 21.9079C58.1306 21.3484 57.8945 20.8203 57.5565 20.3585C56.5941 19.1392 54.7456 18.3855 52.0574 18.1183C52.1713 18.5487 52.2675 18.9928 52.3437 19.4448L52.5883 19.4416Z" fill="black"/>
</g>
<defs>
<clipPath id="clip0_390_407">
<rect width="69.0598" height="74.8148" fill="white" transform="translate(5.47021 2.59277)"/>
</clipPath>
</defs>
</svg>
